<mxfile host="app.diagrams.net" agent="Mozilla/5.0 (Windows NT 10.0; Win64; x64) AppleWebKit/537.36 (KHTML, like Gecko) Chrome/134.0.0.0 Safari/537.36" version="26.2.3">
  <diagram name="PÃ¡gina-1" id="GM79veLGhoxmELWB4SRB">
    <mxGraphModel grid="1" page="1" gridSize="10" guides="1" tooltips="1" connect="1" arrows="1" fold="1" pageScale="1" pageWidth="827" pageHeight="1169" math="0" shadow="0">
      <root>
        <mxCell id="0" />
        <mxCell id="1" parent="0" />
        <mxCell id="QA-sONYR95slrFQsOg47-1" value="Inicio" style="ellipse;whiteSpace=wrap;html=1;" vertex="1" parent="1">
          <mxGeometry x="340" y="20" width="120" height="80" as="geometry" />
        </mxCell>
        <mxCell id="QA-sONYR95slrFQsOg47-2" value="Fim" style="ellipse;whiteSpace=wrap;html=1;" vertex="1" parent="1">
          <mxGeometry x="340" y="1130" width="120" height="80" as="geometry" />
        </mxCell>
        <mxCell id="QA-sONYR95slrFQsOg47-3" value="inteiro data,dia,mes,ano" style="rounded=0;whiteSpace=wrap;html=1;" vertex="1" parent="1">
          <mxGeometry x="340" y="130" width="120" height="60" as="geometry" />
        </mxCell>
        <mxCell id="QA-sONYR95slrFQsOg47-4" value="&quot;Informe a data: &quot;" style="shape=document;whiteSpace=wrap;html=1;boundedLbl=1;" vertex="1" parent="1">
          <mxGeometry x="340" y="230" width="120" height="80" as="geometry" />
        </mxCell>
        <mxCell id="QA-sONYR95slrFQsOg47-5" value="data" style="shape=parallelogram;perimeter=parallelogramPerimeter;whiteSpace=wrap;html=1;fixedSize=1;" vertex="1" parent="1">
          <mxGeometry x="340" y="350" width="120" height="60" as="geometry" />
        </mxCell>
        <mxCell id="QA-sONYR95slrFQsOg47-6" value="dia = data/10000" style="rounded=0;whiteSpace=wrap;html=1;" vertex="1" parent="1">
          <mxGeometry x="340" y="450" width="120" height="60" as="geometry" />
        </mxCell>
        <mxCell id="QA-sONYR95slrFQsOg47-7" value="data = data%10000" style="rounded=0;whiteSpace=wrap;html=1;" vertex="1" parent="1">
          <mxGeometry x="340" y="540" width="120" height="60" as="geometry" />
        </mxCell>
        <mxCell id="QA-sONYR95slrFQsOg47-8" value="mes = data/100" style="rounded=0;whiteSpace=wrap;html=1;" vertex="1" parent="1">
          <mxGeometry x="340" y="630" width="120" height="60" as="geometry" />
        </mxCell>
        <mxCell id="QA-sONYR95slrFQsOg47-9" value="data = datas%100" style="rounded=0;whiteSpace=wrap;html=1;" vertex="1" parent="1">
          <mxGeometry x="340" y="720" width="120" height="60" as="geometry" />
        </mxCell>
        <mxCell id="QA-sONYR95slrFQsOg47-10" value="ano = data" style="rounded=0;whiteSpace=wrap;html=1;" vertex="1" parent="1">
          <mxGeometry x="340" y="810" width="120" height="60" as="geometry" />
        </mxCell>
        <mxCell id="QA-sONYR95slrFQsOg47-11" value="&quot;Dia: &quot;, dia, &quot;\nMes: &quot;, mes, &quot;\nAno: &quot;,ano" style="shape=document;whiteSpace=wrap;html=1;boundedLbl=1;" vertex="1" parent="1">
          <mxGeometry x="340" y="900" width="120" height="80" as="geometry" />
        </mxCell>
        <mxCell id="QA-sONYR95slrFQsOg47-12" value="&quot;\nData no formado MMDDAA: &quot;,mes,dia,ano" style="shape=document;whiteSpace=wrap;html=1;boundedLbl=1;" vertex="1" parent="1">
          <mxGeometry x="340" y="1020" width="120" height="80" as="geometry" />
        </mxCell>
        <mxCell id="QA-sONYR95slrFQsOg47-13" value="" style="endArrow=classic;html=1;rounded=0;exitX=0.5;exitY=1;exitDx=0;exitDy=0;entryX=0.5;entryY=0;entryDx=0;entryDy=0;" edge="1" parent="1" source="QA-sONYR95slrFQsOg47-1" target="QA-sONYR95slrFQsOg47-3">
          <mxGeometry width="50" height="50" relative="1" as="geometry">
            <mxPoint x="390" y="280" as="sourcePoint" />
            <mxPoint x="440" y="230" as="targetPoint" />
          </mxGeometry>
        </mxCell>
        <mxCell id="QA-sONYR95slrFQsOg47-14" value="" style="endArrow=classic;html=1;rounded=0;exitX=0.5;exitY=1;exitDx=0;exitDy=0;entryX=0.5;entryY=0;entryDx=0;entryDy=0;" edge="1" parent="1" source="QA-sONYR95slrFQsOg47-3" target="QA-sONYR95slrFQsOg47-4">
          <mxGeometry width="50" height="50" relative="1" as="geometry">
            <mxPoint x="390" y="280" as="sourcePoint" />
            <mxPoint x="440" y="230" as="targetPoint" />
          </mxGeometry>
        </mxCell>
        <mxCell id="QA-sONYR95slrFQsOg47-15" value="" style="endArrow=classic;html=1;rounded=0;exitX=0.477;exitY=0.918;exitDx=0;exitDy=0;exitPerimeter=0;entryX=0.5;entryY=0;entryDx=0;entryDy=0;" edge="1" parent="1" source="QA-sONYR95slrFQsOg47-4" target="QA-sONYR95slrFQsOg47-5">
          <mxGeometry width="50" height="50" relative="1" as="geometry">
            <mxPoint x="390" y="280" as="sourcePoint" />
            <mxPoint x="440" y="230" as="targetPoint" />
          </mxGeometry>
        </mxCell>
        <mxCell id="QA-sONYR95slrFQsOg47-16" value="" style="endArrow=classic;html=1;rounded=0;exitX=0.5;exitY=1;exitDx=0;exitDy=0;entryX=0.5;entryY=0;entryDx=0;entryDy=0;" edge="1" parent="1" source="QA-sONYR95slrFQsOg47-5" target="QA-sONYR95slrFQsOg47-6">
          <mxGeometry width="50" height="50" relative="1" as="geometry">
            <mxPoint x="390" y="280" as="sourcePoint" />
            <mxPoint x="440" y="230" as="targetPoint" />
          </mxGeometry>
        </mxCell>
        <mxCell id="QA-sONYR95slrFQsOg47-17" value="" style="endArrow=classic;html=1;rounded=0;exitX=0.5;exitY=1;exitDx=0;exitDy=0;entryX=0.5;entryY=0;entryDx=0;entryDy=0;" edge="1" parent="1" source="QA-sONYR95slrFQsOg47-6" target="QA-sONYR95slrFQsOg47-7">
          <mxGeometry width="50" height="50" relative="1" as="geometry">
            <mxPoint x="390" y="580" as="sourcePoint" />
            <mxPoint x="440" y="530" as="targetPoint" />
          </mxGeometry>
        </mxCell>
        <mxCell id="QA-sONYR95slrFQsOg47-18" value="" style="endArrow=classic;html=1;rounded=0;exitX=0.5;exitY=1;exitDx=0;exitDy=0;entryX=0.5;entryY=0;entryDx=0;entryDy=0;" edge="1" parent="1" source="QA-sONYR95slrFQsOg47-7" target="QA-sONYR95slrFQsOg47-8">
          <mxGeometry width="50" height="50" relative="1" as="geometry">
            <mxPoint x="390" y="580" as="sourcePoint" />
            <mxPoint x="440" y="530" as="targetPoint" />
          </mxGeometry>
        </mxCell>
        <mxCell id="QA-sONYR95slrFQsOg47-19" value="" style="endArrow=classic;html=1;rounded=0;exitX=0.5;exitY=1;exitDx=0;exitDy=0;entryX=0.5;entryY=0;entryDx=0;entryDy=0;" edge="1" parent="1" source="QA-sONYR95slrFQsOg47-8" target="QA-sONYR95slrFQsOg47-9">
          <mxGeometry width="50" height="50" relative="1" as="geometry">
            <mxPoint x="390" y="580" as="sourcePoint" />
            <mxPoint x="440" y="530" as="targetPoint" />
          </mxGeometry>
        </mxCell>
        <mxCell id="QA-sONYR95slrFQsOg47-20" value="" style="endArrow=classic;html=1;rounded=0;exitX=0.5;exitY=1;exitDx=0;exitDy=0;entryX=0.5;entryY=0;entryDx=0;entryDy=0;" edge="1" parent="1" source="QA-sONYR95slrFQsOg47-9" target="QA-sONYR95slrFQsOg47-10">
          <mxGeometry width="50" height="50" relative="1" as="geometry">
            <mxPoint x="390" y="780" as="sourcePoint" />
            <mxPoint x="440" y="730" as="targetPoint" />
          </mxGeometry>
        </mxCell>
        <mxCell id="QA-sONYR95slrFQsOg47-21" value="" style="endArrow=classic;html=1;rounded=0;exitX=0.5;exitY=1;exitDx=0;exitDy=0;entryX=0.5;entryY=0;entryDx=0;entryDy=0;" edge="1" parent="1" source="QA-sONYR95slrFQsOg47-10" target="QA-sONYR95slrFQsOg47-11">
          <mxGeometry width="50" height="50" relative="1" as="geometry">
            <mxPoint x="390" y="880" as="sourcePoint" />
            <mxPoint x="440" y="830" as="targetPoint" />
          </mxGeometry>
        </mxCell>
        <mxCell id="QA-sONYR95slrFQsOg47-22" value="" style="endArrow=classic;html=1;rounded=0;exitX=0.517;exitY=0.853;exitDx=0;exitDy=0;exitPerimeter=0;entryX=0.5;entryY=0;entryDx=0;entryDy=0;" edge="1" parent="1" source="QA-sONYR95slrFQsOg47-11" target="QA-sONYR95slrFQsOg47-12">
          <mxGeometry width="50" height="50" relative="1" as="geometry">
            <mxPoint x="390" y="880" as="sourcePoint" />
            <mxPoint x="440" y="830" as="targetPoint" />
          </mxGeometry>
        </mxCell>
        <mxCell id="QA-sONYR95slrFQsOg47-23" value="" style="endArrow=classic;html=1;rounded=0;exitX=0.523;exitY=0.893;exitDx=0;exitDy=0;exitPerimeter=0;entryX=0.5;entryY=0;entryDx=0;entryDy=0;" edge="1" parent="1" source="QA-sONYR95slrFQsOg47-12" target="QA-sONYR95slrFQsOg47-2">
          <mxGeometry width="50" height="50" relative="1" as="geometry">
            <mxPoint x="390" y="980" as="sourcePoint" />
            <mxPoint x="440" y="930" as="targetPoint" />
          </mxGeometry>
        </mxCell>
      </root>
    </mxGraphModel>
  </diagram>
</mxfile>
